# 3ds Max Wavefront OBJ Exporter v0.97b - (c)2007 guruware
# File Created: 16.08.2020 00:01:28

#
# object corridor_x_junction
#

v  2.3013 1.4000 -2.3013
v  1.5016 0.0144 -1.5016
v  2.5000 1.4000 -2.3012
v  2.5000 3.9559 -0.8000
v  2.5000 0.0144 -1.5012
v  0.8020 3.9559 -0.8020
v  0.8039 5.0794 -0.8000
v  2.5000 -0.8780 -1.5012
v  2.5000 3.9559 0.8000
v  2.5000 1.4000 2.3012
v  2.5000 0.0144 1.5012
v  1.5016 -0.8780 -1.5016
v  2.5000 -0.8780 1.5012
v  2.5000 5.0794 -0.8000
v  2.5000 5.0794 0.8000
v  0.8039 5.0794 0.8000
v  2.3013 1.4000 2.3013
v  1.5016 0.0144 1.5016
v  2.3012 1.4000 2.5000
v  0.8000 3.9559 2.5000
v  1.5012 0.0144 2.5000
v  0.8020 3.9559 0.8020
v  0.8000 5.0794 0.8039
v  1.5012 -0.8780 2.5000
v  -2.3013 1.4000 2.3013
v  -0.8000 3.9559 2.5000
v  -2.3012 1.4000 2.5000
v  -1.5012 0.0144 2.5000
v  -1.5016 0.0144 1.5016
v  1.5016 -0.8780 1.5016
v  -1.5016 -0.8780 1.5016
v  -1.5012 -0.8780 2.5000
v  0.8000 5.0794 2.5000
v  -0.8000 5.0794 2.5000
v  -0.8000 5.0794 0.8039
v  -2.5000 1.4000 2.3012
v  -2.5000 3.9559 0.8000
v  -2.5000 0.0144 1.5012
v  -0.8020 3.9559 0.8020
v  -0.8039 5.0794 0.8000
v  -2.5000 -0.8780 1.5012
v  -2.3013 1.4000 -2.3013
v  -0.8020 3.9559 -0.8020
v  -2.5000 3.9559 -0.8000
v  -2.5000 1.4000 -2.3012
v  -2.5000 0.0144 -1.5012
v  -1.5016 0.0144 -1.5016
v  -1.5016 -0.8780 -1.5016
v  -2.5000 -0.8780 -1.5012
v  -2.5000 5.0794 0.8000
v  -2.5000 5.0794 -0.8000
v  -0.8039 5.0794 -0.8000
v  -2.3012 1.4000 -2.5000
v  -0.8000 3.9559 -2.5000
v  -1.5012 0.0144 -2.5000
v  -0.8000 5.0794 -0.8039
v  -1.5012 -0.8780 -2.5000
v  0.8000 3.9559 -2.5000
v  2.3012 1.4000 -2.5000
v  1.5012 0.0144 -2.5000
v  1.5012 -0.8780 -2.5000
v  -0.8000 5.0794 -2.5000
v  0.8000 5.0794 -2.5000
v  0.8000 5.0794 -0.8039
# 64 vertices

vn -0.0011 -0.2623 0.9650
vn -0.0007 -0.2170 0.9762
vn -0.0005 -0.5064 0.8623
vn -0.0005 -0.5064 0.8623
vn -0.0003 -0.5064 0.8623
vn -0.0011 -0.2623 0.9650
vn -0.0003 0.5000 0.8660
vn -0.0003 0.5000 0.8661
vn -0.0004 0.2138 0.9769
vn -0.0004 0.2138 0.9769
vn -0.0004 0.2588 0.9659
vn -0.0003 0.5000 0.8660
vn -0.0005 -0.5064 -0.8623
vn -0.0011 -0.2174 -0.9761
vn -0.0007 -0.2627 -0.9649
vn -0.0007 -0.2627 -0.9649
vn -0.0003 -0.5064 -0.8623
vn -0.0005 -0.5064 -0.8623
vn -0.0000 -1.0000 -0.0000
vn -0.0000 -1.0000 -0.0000
vn -0.0000 -1.0000 -0.0000
vn -0.0000 -1.0000 -0.0000
vn -0.0000 -1.0000 -0.0000
vn -0.0000 -1.0000 -0.0000
vn 0.0000 1.0000 0.0000
vn 0.0000 1.0000 0.0000
vn 0.0000 1.0000 0.0000
vn 0.0000 1.0000 0.0000
vn 0.0000 1.0000 0.0000
vn 0.0000 1.0000 0.0000
vn -0.0004 0.2138 -0.9769
vn -0.0003 0.5000 -0.8661
vn -0.0003 0.5000 -0.8660
vn -0.0003 0.5000 -0.8660
vn -0.0004 0.2588 -0.9659
vn -0.0004 0.2138 -0.9769
vn -0.0004 0.2588 0.9659
vn -0.0004 0.2138 0.9769
vn -0.0005 -0.0000 1.0000
vn -0.0005 -0.0000 1.0000
vn -0.0005 -0.0000 1.0000
vn -0.0004 0.2588 0.9659
vn -0.0004 0.2138 -0.9769
vn -0.0004 0.2588 -0.9659
vn -0.0005 0.0000 -1.0000
vn -0.0005 0.0000 -1.0000
vn -0.0005 0.0000 -1.0000
vn -0.0004 0.2138 -0.9769
vn -0.0007 -0.2170 0.9762
vn -0.0011 -0.2623 0.9650
vn -0.0007 -0.0006 1.0000
vn -0.0007 -0.0006 1.0000
vn -0.0000 -0.0017 1.0000
vn -0.0007 -0.2170 0.9762
vn -1.0000 -0.0000 -0.0000
vn -1.0000 -0.0000 -0.0000
vn -1.0000 -0.0000 -0.0000
vn -1.0000 -0.0000 -0.0000
vn -1.0000 -0.0000 -0.0000
vn -1.0000 -0.0000 -0.0000
vn -0.0007 -0.2627 -0.9649
vn -0.0011 -0.2174 -0.9761
vn -0.0007 -0.0011 -1.0000
vn -0.0007 -0.0011 -1.0000
vn 0.0000 -0.0000 -1.0000
vn -0.0007 -0.2627 -0.9649
vn 1.0000 -0.0017 0.0000
vn 1.0000 -0.0017 0.0000
vn 1.0000 -0.0017 0.0000
vn 1.0000 -0.0017 0.0000
vn 1.0000 -0.0017 0.0000
vn 1.0000 -0.0017 0.0000
vn -0.9650 -0.2623 -0.0011
vn -0.9762 -0.2170 -0.0007
vn -0.8623 -0.5064 -0.0005
vn -0.8623 -0.5064 -0.0005
vn -0.8623 -0.5064 -0.0003
vn -0.9650 -0.2623 -0.0011
vn -0.8660 0.5000 -0.0003
vn -0.8661 0.5000 -0.0003
vn -0.9769 0.2138 -0.0004
vn -0.9769 0.2138 -0.0004
vn -0.9659 0.2588 -0.0004
vn -0.8660 0.5000 -0.0003
vn 0.8623 -0.5064 -0.0005
vn 0.9761 -0.2174 -0.0011
vn 0.9649 -0.2627 -0.0007
vn 0.9649 -0.2627 -0.0007
vn 0.8623 -0.5064 -0.0003
vn 0.8623 -0.5064 -0.0005
vn 0.0000 -1.0000 -0.0000
vn 0.0000 -1.0000 -0.0000
vn 0.0000 -1.0000 -0.0000
vn 0.0000 -1.0000 -0.0000
vn 0.0000 -1.0000 -0.0000
vn 0.0000 -1.0000 -0.0000
vn -0.0000 1.0000 0.0000
vn -0.0000 1.0000 0.0000
vn -0.0000 1.0000 0.0000
vn -0.0000 1.0000 0.0000
vn -0.0000 1.0000 0.0000
vn -0.0000 1.0000 0.0000
vn 0.9769 0.2138 -0.0004
vn 0.8661 0.5000 -0.0003
vn 0.8660 0.5000 -0.0003
vn 0.8660 0.5000 -0.0003
vn 0.9659 0.2588 -0.0004
vn 0.9769 0.2138 -0.0004
vn -0.9659 0.2588 -0.0004
vn -0.9769 0.2138 -0.0004
vn -1.0000 0.0000 -0.0005
vn -1.0000 0.0000 -0.0005
vn -1.0000 -0.0000 -0.0005
vn -0.9659 0.2588 -0.0004
vn 0.9769 0.2138 -0.0004
vn 0.9659 0.2588 -0.0004
vn 1.0000 -0.0000 -0.0005
vn 1.0000 -0.0000 -0.0005
vn 1.0000 0.0000 -0.0005
vn 0.9769 0.2138 -0.0004
vn -0.9762 -0.2170 -0.0007
vn -0.9650 -0.2623 -0.0011
vn -1.0000 -0.0006 -0.0007
vn -1.0000 -0.0006 -0.0007
vn -1.0000 -0.0017 0.0000
vn -0.9762 -0.2170 -0.0007
vn -0.0000 -0.0000 -1.0000
vn -0.0000 -0.0000 -1.0000
vn -0.0000 -0.0000 -1.0000
vn -0.0000 -0.0000 -1.0000
vn -0.0000 -0.0000 -1.0000
vn -0.0000 -0.0000 -1.0000
vn 0.9649 -0.2627 -0.0007
vn 0.9761 -0.2174 -0.0011
vn 1.0000 -0.0011 -0.0007
vn 1.0000 -0.0011 -0.0007
vn 1.0000 0.0000 -0.0000
vn 0.9649 -0.2627 -0.0007
vn -0.0000 -0.0017 1.0000
vn -0.0000 -0.0017 1.0000
vn -0.0000 -0.0017 1.0000
vn -0.0000 -0.0017 1.0000
vn 0.0000 -0.0017 1.0000
vn -0.0000 -0.0017 1.0000
vn 0.0011 -0.2623 -0.9650
vn 0.0007 -0.2170 -0.9762
vn 0.0005 -0.5064 -0.8623
vn 0.0005 -0.5064 -0.8623
vn 0.0003 -0.5064 -0.8623
vn 0.0011 -0.2623 -0.9650
vn 0.0003 0.5000 -0.8660
vn 0.0003 0.5000 -0.8661
vn 0.0004 0.2138 -0.9769
vn 0.0004 0.2138 -0.9769
vn 0.0004 0.2588 -0.9659
vn 0.0003 0.5000 -0.8660
vn 0.0005 -0.5064 0.8623
vn 0.0011 -0.2174 0.9761
vn 0.0007 -0.2627 0.9649
vn 0.0007 -0.2627 0.9649
vn 0.0003 -0.5064 0.8623
vn 0.0005 -0.5064 0.8623
vn 0.0000 -1.0000 -0.0000
vn 0.0000 -1.0000 -0.0000
vn 0.0000 -1.0000 -0.0000
vn 0.0000 -1.0000 -0.0000
vn 0.0000 -1.0000 -0.0000
vn 0.0000 -1.0000 -0.0000
vn -0.0000 1.0000 0.0000
vn -0.0000 1.0000 0.0000
vn -0.0000 1.0000 0.0000
vn -0.0000 1.0000 0.0000
vn -0.0000 1.0000 0.0000
vn -0.0000 1.0000 0.0000
vn 0.0004 0.2138 0.9769
vn 0.0003 0.5000 0.8661
vn 0.0003 0.5000 0.8660
vn 0.0003 0.5000 0.8660
vn 0.0004 0.2588 0.9659
vn 0.0004 0.2138 0.9769
vn 0.0004 0.2588 -0.9659
vn 0.0004 0.2138 -0.9769
vn 0.0005 -0.0000 -1.0000
vn 0.0005 -0.0000 -1.0000
vn 0.0005 0.0000 -1.0000
vn 0.0004 0.2588 -0.9659
vn 0.0004 0.2138 0.9769
vn 0.0004 0.2588 0.9659
vn 0.0005 0.0000 1.0000
vn 0.0005 0.0000 1.0000
vn 0.0005 0.0000 1.0000
vn 0.0004 0.2138 0.9769
vn 0.0007 -0.2170 -0.9762
vn 0.0011 -0.2623 -0.9650
vn 0.0007 -0.0006 -1.0000
vn 0.0007 -0.0006 -1.0000
vn -0.0000 -0.0017 -1.0000
vn 0.0007 -0.2170 -0.9762
vn 1.0000 0.0000 -0.0000
vn 1.0000 0.0000 -0.0000
vn 1.0000 0.0000 -0.0000
vn 1.0000 0.0000 -0.0000
vn 1.0000 0.0000 -0.0000
vn 1.0000 0.0000 -0.0000
vn 0.0007 -0.2627 0.9649
vn 0.0011 -0.2174 0.9761
vn 0.0007 -0.0011 1.0000
vn 0.0007 -0.0011 1.0000
vn 0.0000 -0.0000 1.0000
vn 0.0007 -0.2627 0.9649
vn -1.0000 -0.0017 -0.0000
vn -1.0000 -0.0017 -0.0000
vn -1.0000 -0.0017 -0.0000
vn -1.0000 -0.0017 -0.0000
vn -1.0000 -0.0017 -0.0000
vn -1.0000 -0.0017 -0.0000
vn 0.9650 -0.2623 0.0011
vn 0.9762 -0.2170 0.0007
vn 0.8623 -0.5064 0.0005
vn 0.8623 -0.5064 0.0005
vn 0.8623 -0.5064 0.0003
vn 0.9650 -0.2623 0.0011
vn 0.8660 0.5000 0.0003
vn 0.8661 0.5000 0.0003
vn 0.9769 0.2138 0.0004
vn 0.9769 0.2138 0.0004
vn 0.9659 0.2588 0.0004
vn 0.8660 0.5000 0.0003
vn -0.8623 -0.5064 0.0005
vn -0.9761 -0.2174 0.0011
vn -0.9649 -0.2627 0.0007
vn -0.9649 -0.2627 0.0007
vn -0.8623 -0.5064 0.0003
vn -0.8623 -0.5064 0.0005
vn -0.0000 -1.0000 0.0000
vn -0.0000 -1.0000 0.0000
vn -0.0000 -1.0000 0.0000
vn -0.0000 -1.0000 0.0000
vn -0.0000 -1.0000 0.0000
vn -0.0000 -1.0000 0.0000
vn -0.0000 1.0000 -0.0000
vn 0.0000 1.0000 -0.0000
vn -0.0000 1.0000 -0.0000
vn -0.0000 1.0000 -0.0000
vn -0.0000 1.0000 -0.0000
vn -0.0000 1.0000 -0.0000
vn -0.9769 0.2138 0.0004
vn -0.8661 0.5000 0.0003
vn -0.8660 0.5000 0.0003
vn -0.8660 0.5000 0.0003
vn -0.9659 0.2588 0.0004
vn -0.9769 0.2138 0.0004
vn 0.9659 0.2588 0.0004
vn 0.9769 0.2138 0.0004
vn 1.0000 -0.0000 0.0005
vn 1.0000 -0.0000 0.0005
vn 1.0000 0.0000 0.0005
vn 0.9659 0.2588 0.0004
vn -0.9769 0.2138 0.0004
vn -0.9659 0.2588 0.0004
vn -1.0000 0.0000 0.0005
vn -1.0000 0.0000 0.0005
vn -1.0000 0.0000 0.0005
vn -0.9769 0.2138 0.0004
vn 0.9762 -0.2170 0.0007
vn 0.9650 -0.2623 0.0011
vn 1.0000 -0.0006 0.0007
vn 1.0000 -0.0006 0.0007
vn 1.0000 -0.0017 0.0000
vn 0.9762 -0.2170 0.0007
vn 0.0000 0.0000 1.0000
vn 0.0000 0.0000 1.0000
vn 0.0000 0.0000 1.0000
vn 0.0000 0.0000 1.0000
vn 0.0000 0.0000 1.0000
vn 0.0000 0.0000 1.0000
vn -0.9649 -0.2627 0.0007
vn -0.9761 -0.2174 0.0011
vn -1.0000 -0.0011 0.0007
vn -1.0000 -0.0011 0.0007
vn -1.0000 -0.0000 -0.0000
vn -0.9649 -0.2627 0.0007
vn 0.0000 -0.0017 -1.0000
vn 0.0000 -0.0017 -1.0000
vn 0.0000 -0.0017 -1.0000
vn 0.0000 -0.0017 -1.0000
vn 0.0000 -0.0017 -1.0000
vn 0.0000 -0.0017 -1.0000
vn 0.0000 -1.0000 -0.0000
vn 0.0000 -1.0000 -0.0000
vn 0.0000 -1.0000 -0.0000
vn 0.0000 -1.0000 -0.0000
vn 0.0000 -1.0000 -0.0000
vn 0.0000 -1.0000 -0.0000
vn -0.0000 1.0000 0.0000
vn -0.0000 1.0000 0.0000
vn -0.0000 1.0000 0.0000
vn -0.0000 1.0000 0.0000
vn -0.0000 1.0000 0.0000
vn -0.0000 1.0000 0.0000
# 300 vertex normals

g corridor_x_junction
f 4//1 6//2 1//3 
f 1//4 3//5 4//6 
f 3//7 1//8 2//9 
f 2//10 5//11 3//12 
f 17//13 22//14 9//15 
f 9//16 10//17 17//18 
f 14//19 15//20 16//21 
f 16//22 7//23 14//24 
f 13//25 8//26 12//27 
f 12//28 30//29 13//30 
f 18//31 17//32 10//33 
f 10//34 11//35 18//36 
f 5//37 2//38 12//39 
f 12//40 8//41 5//42 
f 18//43 11//44 13//45 
f 13//46 30//47 18//48 
f 6//49 4//50 14//51 
f 14//52 7//53 6//54 
f 4//55 9//56 15//57 
f 15//58 14//59 4//60 
f 9//61 22//62 16//63 
f 16//64 15//65 9//66 
f 22//67 6//68 7//69 
f 7//70 16//71 22//72 
f 20//73 22//74 17//75 
f 17//76 19//77 20//78 
f 19//79 17//80 18//81 
f 18//82 21//83 19//84 
f 25//85 39//86 26//87 
f 26//88 27//89 25//90 
f 33//91 34//92 35//93 
f 35//94 23//95 33//96 
f 32//97 24//98 30//99 
f 30//100 31//101 32//102 
f 29//103 25//104 27//105 
f 27//106 28//107 29//108 
f 21//109 18//110 30//111 
f 30//112 24//113 21//114 
f 29//115 28//116 32//117 
f 32//118 31//119 29//120 
f 22//121 20//122 33//123 
f 33//124 23//125 22//126 
f 20//127 26//128 34//129 
f 34//130 33//131 20//132 
f 26//133 39//134 35//135 
f 35//136 34//137 26//138 
f 39//139 22//140 23//141 
f 23//142 35//143 39//144 
f 37//145 39//146 25//147 
f 25//148 36//149 37//150 
f 36//151 25//152 29//153 
f 29//154 38//155 36//156 
f 42//157 43//158 44//159 
f 44//160 45//161 42//162 
f 50//163 51//164 52//165 
f 52//166 40//167 50//168 
f 49//169 41//170 31//171 
f 31//172 48//173 49//174 
f 47//175 42//176 45//177 
f 45//178 46//179 47//180 
f 38//181 29//182 31//183 
f 31//184 41//185 38//186 
f 47//187 46//188 49//189 
f 49//190 48//191 47//192 
f 39//193 37//194 50//195 
f 50//196 40//197 39//198 
f 37//199 44//200 51//201 
f 51//202 50//203 37//204 
f 44//205 43//206 52//207 
f 52//208 51//209 44//210 
f 43//211 39//212 40//213 
f 40//214 52//215 43//216 
f 54//217 43//218 42//219 
f 42//220 53//221 54//222 
f 53//223 42//224 47//225 
f 47//226 55//227 53//228 
f 1//229 6//230 58//231 
f 58//232 59//233 1//234 
f 62//235 63//236 64//237 
f 64//238 56//239 62//240 
f 61//241 57//242 48//243 
f 48//244 12//245 61//246 
f 2//247 1//248 59//249 
f 59//250 60//251 2//252 
f 55//253 47//254 48//255 
f 48//256 57//257 55//258 
f 2//259 60//260 61//261 
f 61//262 12//263 2//264 
f 43//265 54//266 62//267 
f 62//268 56//269 43//270 
f 54//271 58//272 63//273 
f 63//274 62//275 54//276 
f 58//277 6//278 64//279 
f 64//280 63//281 58//282 
f 6//283 43//284 56//285 
f 56//286 64//287 6//288 
f 22//289 39//290 43//291 
f 43//292 6//293 22//294 
f 31//295 30//296 12//297 
f 12//298 48//299 31//300 
# 100 faces

