# 3ds Max Wavefront OBJ Exporter v0.97b - (c)2007 guruware
# File Created: 19.08.2020 21:36:43

mtllib lowerDoor.mtl

#
# object lowerDoor
#

v  -3.3229 1.3832 -1.6380
v  -3.5696 1.3832 -1.6380
v  -3.5693 1.9302 -1.2677
v  -3.3271 1.9328 -1.2691
v  -3.3229 1.3603 -2.2581
v  -3.5696 1.3603 -2.2581
v  -3.3229 0.0245 -1.4868
v  -3.5651 0.0219 -1.4883
v  -3.3163 0.0196 -0.0000
v  -3.5763 0.0196 -0.0000
v  -3.2960 1.9148 -1.2592
v  -3.5963 0.0396 -1.4781
v  -3.5760 1.9348 -0.0000
v  -3.3160 1.9348 -0.0000
v  -3.3229 1.3832 1.6380
v  -3.3271 1.9328 1.2691
v  -3.5649 1.9328 1.2691
v  -3.5696 1.3832 1.6380
v  -3.3229 1.3603 2.2581
v  -3.5696 1.3603 2.2581
v  -3.3274 0.0219 1.4883
v  -3.5651 0.0219 1.4883
v  -3.2963 0.0396 1.4781
v  -3.2960 1.9148 1.2592
v  -3.5960 1.9148 1.2592
v  -3.5963 0.0396 1.4781
# 26 vertices

vn -0.0000 0.5606 -0.8281
vn -0.0108 0.5572 -0.8303
vn -0.0000 0.9993 -0.0368
vn 0.0104 -0.4985 -0.8668
vn 0.0000 -0.5000 -0.8660
vn 0.0000 -1.0000 -0.0016
vn 0.0104 -0.9999 -0.0033
vn 0.5063 0.4833 -0.7142
vn -0.4933 -0.4349 -0.7533
vn -0.0106 0.9999 -0.0037
vn -0.0000 1.0000 -0.0016
vn 1.0000 -0.0026 -0.0045
vn 1.0000 0.0047 -0.0002
vn 0.9991 -0.0299 -0.0290
vn 0.9999 -0.0001 0.0159
vn -1.0000 0.0040 -0.0053
vn -0.9998 0.0198 -0.0007
vn -0.9998 0.0186 -0.0102
vn -0.9999 0.0001 0.0135
vn 0.5009 0.8655 -0.0058
vn -0.4945 -0.8692 -0.0051
vn -0.0000 0.5573 0.8303
vn -0.0000 0.9993 0.0368
vn 0.0000 -0.4986 0.8668
vn 0.0000 -1.0000 0.0016
vn 0.4944 -0.8692 0.0051
vn 0.4932 -0.4350 0.7534
vn 0.5063 0.4833 0.7142
vn -0.5009 0.8655 0.0058
vn -0.5064 0.4835 0.7139
vn -0.4933 -0.4349 0.7533
vn -0.0000 1.0000 0.0016
vn 0.9999 -0.0001 -0.0159
vn 0.9991 -0.0299 0.0290
vn 1.0000 0.0047 0.0002
vn 0.9995 0.0284 -0.0139
vn -0.9999 0.0001 -0.0135
vn -0.9998 0.0198 0.0007
vn -0.9998 0.0186 0.0102
vn -0.9980 -0.0616 -0.0168
vn 0.5009 0.8655 0.0058
vn -0.4945 -0.8692 0.0051
# 42 vertex normals

g lowerDoor
usemtl door
f 1//1 2//1 3//1 
f 3//2 4//2 1//2 
f 5//3 6//3 2//3 
f 2//3 1//3 5//3 
f 7//4 8//4 6//4 
f 6//5 5//5 7//5 
f 9//6 10//6 8//6 
f 8//7 7//7 9//7 
f 11//8 1//8 4//8 
f 12//9 6//9 8//9 
f 4//10 3//10 13//10 
f 13//11 14//11 4//11 
f 9//12 7//12 5//12 
f 9//13 5//13 1//13 
f 9//14 1//14 11//14 
f 9//15 11//15 14//15 
f 13//16 3//16 2//16 
f 2//17 6//17 12//17 
f 13//18 2//18 12//18 
f 13//19 12//19 10//19 
f 11//20 4//20 14//20 
f 10//21 12//21 8//21 
f 15//22 16//22 17//22 
f 17//22 18//22 15//22 
f 19//23 15//23 18//23 
f 18//23 20//23 19//23 
f 21//24 19//24 20//24 
f 20//24 22//24 21//24 
f 9//25 21//25 22//25 
f 22//25 10//25 9//25 
f 23//26 21//26 9//26 
f 19//27 21//27 23//27 
f 24//28 16//28 15//28 
f 25//29 17//29 13//29 
f 18//30 17//30 25//30 
f 26//31 22//31 20//31 
f 16//32 14//32 13//32 
f 13//32 17//32 16//32 
f 9//33 14//33 24//33 
f 9//34 24//34 15//34 
f 9//35 15//35 19//35 
f 9//36 19//36 23//36 
f 13//37 10//37 26//37 
f 26//38 20//38 18//38 
f 13//39 26//39 18//39 
f 13//40 18//40 25//40 
f 14//41 16//41 24//41 
f 10//42 22//42 26//42 
# 48 faces

