# 3ds Max Wavefront OBJ Exporter v0.97b - (c)2007 guruware
# File Created: 17.08.2020 23:55:22

mtllib room-entry.mtl

#
# object room_entry
#

v  -1.8003 3.9416 2.5000
v  -3.2996 1.3856 2.5000
v  -3.3000 1.3852 2.3012
v  -1.7999 3.9416 0.8002
v  -2.5000 0.0000 2.5000
v  -5.2945 -0.0004 1.5012
v  -1.3992 3.9412 -0.7997
v  -1.3987 5.0647 -0.7997
v  -1.3985 5.0647 0.8003
v  -1.3999 3.9412 0.8003
v  -1.4003 3.9412 2.5000
v  -1.3984 5.0647 2.5000
v  -1.2500 -0.0001 2.5000
v  -1.2500 -0.0001 1.2500
v  0.0000 -0.0002 2.5000
v  0.0000 -0.0002 1.2500
v  0.0000 -0.0002 0.0000
v  -1.2500 -0.0001 0.0000
v  -5.2945 0.0000 0.0000
v  1.2500 -0.0003 2.5000
v  2.5000 -0.0004 2.5000
v  2.5000 -0.0004 1.2500
v  1.2500 -0.0003 1.2500
v  2.5000 -0.0004 0.0000
v  1.2500 -0.0003 0.0000
v  2.5000 -0.0004 -1.2500
v  2.5000 -0.0004 -2.5000
v  1.2500 -0.0003 -2.5000
v  1.2500 -0.0003 -1.2500
v  0.0000 -0.0002 -2.5000
v  0.0000 -0.0002 -1.2500
v  -1.2500 -0.0001 -2.5000
v  -2.5000 -0.0000 -2.5000
v  -5.2945 -0.0004 -1.5012
v  -1.2500 -0.0001 -1.2500
v  -3.3000 1.3856 -2.5000
v  -3.3000 1.3852 -2.3012
v  -1.7988 3.9416 -2.5000
v  -1.7992 3.9416 -0.7998
v  -1.3988 3.9412 -2.5000
v  -1.3988 5.0647 -2.5000
v  -5.2945 -0.8928 -1.5012
v  -5.2945 -0.8926 0.0000
v  -5.2945 -0.8928 1.5012
v  2.4998 5.0650 -2.5000
v  2.4999 5.0650 -0.7998
v  2.5001 5.0650 0.8002
v  2.5002 5.0650 2.5000
# 48 vertices

vn 0.8625 -0.5060 -0.0006
vn 0.8625 -0.5060 0.0002
vn 0.3360 0.0591 -0.9400
vn 0.8661 0.4998 -0.0027
vn 1.0000 -0.0005 -0.0001
vn 1.0000 -0.0013 0.0004
vn 1.0000 -0.0013 0.0002
vn 1.0000 -0.0017 -0.0001
vn 0.0001 1.0000 -0.0007
vn -0.0001 1.0000 -0.0000
vn 0.0001 1.0000 -0.0000
vn 0.0000 1.0000 0.0003
vn 0.0001 1.0000 0.0000
vn 0.0001 1.0000 0.0007
vn 0.0000 1.0000 -0.0003
vn 0.8660 0.5000 0.0011
vn 0.3360 0.0591 0.9400
vn 0.8623 -0.5064 -0.0011
vn 0.8623 -0.5064 0.0002
vn 1.0000 0.0000 -0.0001
vn 1.0000 -0.0005 0.0002
vn -1.0000 0.0000 -0.0000
vn -1.0000 0.0000 0.0000
vn 0.0001 -1.0000 0.0000
vn -0.0009 -1.0000 0.0000
# 25 vertex normals

g room_entry
usemtl 02___Default
f 1//1 2//1 3//1 
f 3//2 4//2 1//2 
f 5//3 6//3 3//3 
f 3//4 2//4 5//4 
f 7//5 8//5 9//5 
f 9//6 10//6 7//6 
f 11//7 10//7 9//7 
f 9//8 12//8 11//8 
f 6//9 5//9 13//9 
f 13//10 14//10 6//10 
f 13//11 15//11 16//11 
f 16//11 14//11 13//11 
f 16//11 17//11 18//11 
f 18//11 14//11 16//11 
f 18//12 19//12 6//12 
f 6//10 14//10 18//10 
f 20//13 21//13 22//13 
f 22//11 23//11 20//11 
f 22//11 24//11 25//11 
f 25//11 23//11 22//11 
f 25//11 17//11 16//11 
f 16//11 23//11 25//11 
f 16//11 15//11 20//11 
f 20//11 23//11 16//11 
f 26//11 27//11 28//11 
f 28//11 29//11 26//11 
f 28//11 30//11 31//11 
f 31//11 29//11 28//11 
f 31//11 17//11 25//11 
f 25//11 29//11 31//11 
f 25//11 24//11 26//11 
f 26//11 29//11 25//11 
f 32//14 33//14 34//14 
f 34//10 35//10 32//10 
f 34//15 19//15 18//15 
f 18//10 35//10 34//10 
f 18//11 17//11 31//11 
f 31//11 35//11 18//11 
f 31//11 30//11 32//11 
f 32//11 35//11 31//11 
f 33//16 36//16 37//16 
f 37//17 34//17 33//17 
f 37//18 36//18 38//18 
f 38//19 39//19 37//19 
f 40//20 41//20 8//20 
f 8//21 7//21 40//21 
f 42//22 43//22 19//22 
f 19//23 34//23 42//23 
f 43//22 44//22 6//22 
f 6//22 19//22 43//22 
f 45//24 46//24 8//24 
f 8//24 41//24 45//24 
f 46//24 47//24 9//24 
f 9//24 8//24 46//24 
f 47//24 48//24 12//24 
f 12//24 9//24 47//24 
f 1//25 4//25 10//25 
f 10//25 11//25 1//25 
f 4//25 39//25 7//25 
f 7//25 10//25 4//25 
f 39//25 38//25 40//25 
f 40//25 7//25 39//25 
# 62 faces

#
# object upperDoor
#

v  -3.3274 3.9188 -0.7872
v  -3.5696 3.9163 -0.7858
v  -3.5686 3.9288 -0.0000
v  -3.3239 3.9288 -0.0000
v  -3.3229 1.4100 -2.2578
v  -3.5696 1.4100 -2.2578
v  -3.3229 1.4098 -1.6527
v  -3.5696 1.4098 -1.6527
v  -3.3227 1.9569 -1.2824
v  -3.5649 1.9505 -1.2789
v  -3.3160 1.9748 -0.0000
v  -3.5760 1.9748 -0.0000
v  -3.2963 3.9011 -0.7771
v  -3.5960 1.9948 -1.3034
v  -3.3229 3.9163 0.7858
v  -3.5651 3.9188 0.7872
v  -3.3229 1.4100 2.2578
v  -3.5696 1.4100 2.2578
v  -3.3229 1.4098 1.6527
v  -3.5696 1.4098 1.6527
v  -3.3271 1.9505 1.2789
v  -3.5649 1.9505 1.2789
v  -3.2960 1.9948 1.3034
v  -3.5960 1.9948 1.3034
v  -3.5963 3.9011 0.7771
# 25 vertices

vn -0.0105 0.9998 -0.0158
vn -0.0000 0.9999 -0.0126
vn -0.0000 0.5064 -0.8623
vn -0.0104 0.5057 -0.8627
vn 0.0000 -1.0000 -0.0003
vn 0.0267 -0.5686 0.8222
vn 0.0000 -0.5606 0.8281
vn 0.0000 -0.9998 0.0190
vn 0.0263 -0.9996 0.0139
vn 0.9994 0.0040 0.0354
vn 0.9999 -0.0123 -0.0050
vn 0.9993 -0.0218 0.0315
vn 0.9999 -0.0107 -0.0000
vn -0.9990 -0.0451 -0.0000
vn -0.9999 0.0038 0.0154
vn -0.9965 0.0557 -0.0617
vn -1.0000 -0.0007 0.0012
vn 0.4976 0.8673 -0.0131
vn 0.4944 0.4402 -0.7495
vn -0.8231 -0.3181 0.4705
vn -0.8193 -0.5734 0.0038
vn -0.0000 0.9999 0.0158
vn 0.0105 0.9999 0.0126
vn 0.0104 0.5064 0.8622
vn -0.0000 0.5057 0.8627
vn 0.0000 -1.0000 0.0003
vn 0.0000 -0.5687 -0.8226
vn 0.0000 -0.9998 -0.0190
vn 1.0000 0.0000 0.0000
vn 0.9817 0.0622 0.1798
vn 0.9998 0.0098 -0.0155
vn 1.0000 0.0040 -0.0011
vn -0.9999 0.0038 -0.0154
vn -0.9990 -0.0451 0.0000
vn -0.9965 0.0557 0.0617
vn -0.9988 -0.0325 -0.0366
vn 0.8192 -0.5735 -0.0038
vn 0.8231 -0.3186 -0.4700
vn -0.4945 0.4402 0.7495
vn -0.8231 -0.3181 -0.4705
vn -0.4977 0.8673 0.0131
vn -0.8193 -0.5734 -0.0038
# 42 vertex normals

g upperDoor
usemtl 02___Default
f 49//26 50//26 51//26 
f 51//27 52//27 49//27 
f 53//28 54//28 50//28 
f 50//29 49//29 53//29 
f 55//30 56//30 54//30 
f 54//30 53//30 55//30 
f 57//31 58//31 56//31 
f 56//32 55//32 57//32 
f 59//33 60//33 58//33 
f 58//34 57//34 59//34 
f 61//35 52//35 59//35 
f 61//36 59//36 57//36 
f 61//37 57//37 55//37 
f 61//38 55//38 53//38 
f 54//39 56//39 62//39 
f 62//40 60//40 51//40 
f 54//41 62//41 51//41 
f 50//42 54//42 51//42 
f 52//43 61//43 49//43 
f 61//44 53//44 49//44 
f 62//45 56//45 58//45 
f 60//46 62//46 58//46 
f 63//47 52//47 51//47 
f 51//48 64//48 63//48 
f 65//49 63//49 64//49 
f 64//50 66//50 65//50 
f 67//51 65//51 66//51 
f 66//51 68//51 67//51 
f 69//52 67//52 68//52 
f 68//52 70//52 69//52 
f 59//53 69//53 70//53 
f 70//53 60//53 59//53 
f 63//54 65//54 67//54 
f 63//55 67//55 71//55 
f 63//56 71//56 59//56 
f 63//57 59//57 52//57 
f 51//58 60//58 72//58 
f 72//59 68//59 66//59 
f 51//60 72//60 66//60 
f 73//61 51//61 66//61 
f 71//62 69//62 59//62 
f 67//63 69//63 71//63 
f 66//64 64//64 73//64 
f 72//65 70//65 68//65 
f 73//66 64//66 51//66 
f 60//67 70//67 72//67 
# 46 faces

#
# object Shape023
#

v  -3.2811 1.3845 2.0987
v  -3.2811 0.1746 1.4001
v  -3.2811 -0.1754 2.5030
v  -3.2811 1.3860 2.5037
v  -2.1975 1.3845 2.0987
v  -1.6098 -0.0091 1.4001
v  -2.1975 1.3860 2.5037
v  -1.6098 -0.1754 2.5030
v  -3.2811 3.7661 0.6998
v  -3.2811 4.1161 1.7215
v  -1.6098 3.7661 0.6998
v  -1.6098 4.1161 1.7215
v  -3.2811 4.1161 -0.0000
v  -3.2811 3.7661 -0.0000
v  -1.6098 3.7661 -0.0000
v  -1.6098 4.1161 -0.0000
v  -3.2811 -0.1754 -0.0000
v  -3.2811 0.1746 -0.0000
v  -1.6098 -0.0091 -0.0000
v  -1.6098 -0.1754 -0.0000
v  -3.2811 1.3845 -2.0987
v  -3.2811 1.3860 -2.5037
v  -3.2811 -0.1754 -2.5030
v  -3.2811 0.1746 -1.4002
v  -2.1975 1.3845 -2.0987
v  -1.6098 -0.0091 -1.4002
v  -2.1975 1.3860 -2.5037
v  -1.6098 -0.1754 -2.5030
v  -3.2811 3.7661 -0.6998
v  -3.2811 4.1161 -1.7215
v  -1.6098 3.7661 -0.6998
v  -1.6098 4.1161 -1.7215
v  -3.6111 1.3845 2.0987
v  -3.6111 1.3860 2.5037
v  -3.6111 -0.1754 2.5030
v  -3.6111 0.1746 1.4001
v  -4.6946 1.3845 2.0987
v  -5.2824 -0.0091 1.4001
v  -4.6946 1.3860 2.5037
v  -5.2824 -0.1754 2.5030
v  -3.6111 3.7661 0.6998
v  -3.6111 4.1161 1.7215
v  -5.2824 3.7661 0.6998
v  -5.2824 4.1161 1.7215
v  -3.6111 4.1161 -0.0000
v  -3.6111 3.7661 -0.0000
v  -5.2824 3.7661 -0.0000
v  -5.2824 4.1161 -0.0000
v  -3.6111 -0.1754 -0.0000
v  -3.6111 0.1746 -0.0000
v  -5.2824 -0.0091 -0.0000
v  -5.2824 -0.1754 -0.0000
v  -3.6111 1.3845 -2.0987
v  -3.6111 0.1746 -1.4002
v  -3.6111 -0.1754 -2.5030
v  -3.6111 1.3860 -2.5037
v  -4.6946 1.3845 -2.0987
v  -5.2824 -0.0091 -1.4002
v  -4.6946 1.3860 -2.5037
v  -5.2824 -0.1754 -2.5030
v  -3.6111 3.7661 -0.6998
v  -3.6111 4.1161 -1.7215
v  -5.2824 3.7661 -0.6998
v  -5.2824 4.1161 -1.7215
# 64 vertices

vn -1.0000 -0.0000 -0.0000
vn 0.0511 0.4647 -0.8840
vn -0.0000 0.5000 -0.8660
vn 0.9346 0.3518 0.0530
vn 0.9211 0.3892 -0.0015
vn -0.0000 -0.0005 1.0000
vn -1.0000 0.0000 -0.0000
vn 0.0000 -0.5064 -0.8623
vn 0.9776 -0.2102 0.0008
vn 0.9772 -0.2008 0.0688
vn -0.0000 0.2754 0.9613
vn -1.0000 0.0000 0.0000
vn 0.0000 -1.0000 0.0000
vn 0.0000 -1.0000 -0.0000
vn 1.0000 -0.0000 -0.0000
vn -0.0000 1.0000 0.0000
vn -0.0000 1.0000 -0.0000
vn 0.1093 0.9940 -0.0000
vn 1.0000 0.0000 0.0000
vn -1.0000 -0.0000 0.0000
vn -0.0000 0.5000 0.8660
vn 0.0511 0.4647 0.8840
vn 0.9211 0.3892 0.0015
vn 0.9346 0.3518 -0.0530
vn 0.0000 -0.0005 -1.0000
vn 0.0000 -0.5064 0.8623
vn -0.0000 -0.5064 0.8623
vn 0.9772 -0.2008 -0.0688
vn 0.9776 -0.2102 -0.0008
vn 0.0000 0.2754 -0.9613
vn -0.0000 0.2754 -0.9613
vn 1.0000 -0.0000 0.0000
vn 0.1093 0.9940 0.0000
vn 1.0000 0.0000 -0.0000
vn -0.0511 0.4647 -0.8840
vn -0.9211 0.3892 -0.0015
vn -0.9346 0.3518 0.0530
vn 0.0000 -0.0005 1.0000
vn -0.0000 -0.5064 -0.8623
vn -0.9772 -0.2008 0.0688
vn -0.9776 -0.2102 0.0008
vn 0.0000 0.2754 0.9613
vn -0.0000 -1.0000 -0.0000
vn -0.1093 0.9940 -0.0000
vn -0.0511 0.4647 0.8840
vn 0.0000 0.5000 0.8660
vn -0.9346 0.3518 -0.0530
vn -0.9211 0.3892 0.0015
vn -0.0000 -0.0005 -1.0000
vn -0.9776 -0.2102 -0.0008
vn -0.9772 -0.2008 -0.0688
vn -0.0000 -1.0000 0.0000
vn -0.1093 0.9940 0.0000
# 53 vertex normals

g Shape023
usemtl 02___Default
f 74//68 75//68 76//68 
f 76//68 77//68 74//68 
f 78//69 79//69 75//69 
f 75//70 74//70 78//70 
f 80//71 81//71 79//71 
f 79//72 78//72 80//72 
f 77//73 76//73 81//73 
f 81//73 80//73 77//73 
f 82//74 74//74 77//74 
f 77//68 83//68 82//68 
f 84//75 78//75 74//75 
f 74//75 82//75 84//75 
f 85//76 80//76 78//76 
f 78//77 84//77 85//77 
f 83//78 77//78 80//78 
f 80//78 85//78 83//78 
f 86//79 87//79 82//79 
f 82//68 83//68 86//68 
f 87//80 88//80 84//80 
f 84//81 82//81 87//81 
f 84//82 88//82 89//82 
f 89//82 85//82 84//82 
f 89//83 86//83 83//83 
f 83//84 85//84 89//84 
f 90//74 76//74 75//74 
f 75//74 91//74 90//74 
f 75//85 79//85 92//85 
f 92//85 91//85 75//85 
f 79//86 81//86 93//86 
f 93//86 92//86 79//86 
f 81//81 76//81 90//81 
f 90//81 93//81 81//81 
f 94//87 95//87 96//87 
f 96//74 97//74 94//74 
f 98//88 94//88 97//88 
f 97//89 99//89 98//89 
f 100//90 98//90 99//90 
f 99//91 101//91 100//91 
f 95//92 100//92 101//92 
f 101//92 96//92 95//92 
f 102//79 103//79 95//79 
f 95//87 94//87 102//87 
f 104//93 102//93 94//93 
f 94//94 98//94 104//94 
f 105//95 104//95 98//95 
f 98//96 100//96 105//96 
f 103//97 105//97 100//97 
f 100//98 95//98 103//98 
f 86//79 103//79 102//79 
f 102//74 87//74 86//74 
f 87//80 102//80 104//80 
f 104//80 88//80 87//80 
f 104//99 105//99 89//99 
f 89//99 88//99 104//99 
f 89//83 105//83 103//83 
f 103//84 86//84 89//84 
f 90//79 91//79 97//79 
f 97//68 96//68 90//68 
f 97//100 91//100 92//100 
f 92//100 99//100 97//100 
f 99//101 92//101 93//101 
f 93//86 101//86 99//86 
f 101//80 93//80 90//80 
f 90//80 96//80 101//80 
f 106//86 107//86 108//86 
f 108//101 109//101 106//101 
f 110//70 106//70 109//70 
f 109//102 111//102 110//102 
f 112//103 110//103 111//103 
f 111//104 113//104 112//104 
f 107//105 112//105 113//105 
f 113//105 108//105 107//105 
f 114//101 115//101 107//101 
f 107//86 106//86 114//86 
f 116//106 114//106 106//106 
f 106//106 110//106 116//106 
f 117//107 116//107 110//107 
f 110//108 112//108 117//108 
f 115//109 117//109 112//109 
f 112//109 107//109 115//109 
f 118//82 115//82 114//82 
f 114//86 119//86 118//86 
f 119//110 114//110 116//110 
f 116//80 120//80 119//80 
f 116//68 117//68 121//68 
f 121//68 120//68 116//68 
f 121//84 117//84 115//84 
f 115//83 118//83 121//83 
f 122//86 123//86 109//86 
f 109//86 108//86 122//86 
f 109//111 123//111 124//111 
f 124//111 111//111 109//111 
f 111//87 124//87 125//87 
f 125//74 113//74 111//74 
f 113//110 125//110 122//110 
f 122//110 108//110 113//110 
f 126//101 127//101 128//101 
f 128//86 129//86 126//86 
f 130//112 131//112 127//112 
f 127//113 126//113 130//113 
f 132//114 133//114 131//114 
f 131//115 130//115 132//115 
f 129//116 128//116 133//116 
f 133//92 132//92 129//92 
f 134//99 126//99 129//99 
f 129//86 135//86 134//86 
f 136//93 130//93 126//93 
f 126//94 134//94 136//94 
f 137//117 132//117 130//117 
f 130//118 136//118 137//118 
f 135//97 129//97 132//97 
f 132//98 137//98 135//98 
f 118//86 119//86 134//86 
f 134//86 135//86 118//86 
f 119//80 120//80 136//80 
f 136//119 134//119 119//119 
f 136//87 120//87 121//87 
f 121//68 137//68 136//68 
f 121//84 118//84 135//84 
f 135//83 137//83 121//83 
f 122//86 128//86 127//86 
f 127//86 123//86 122//86 
f 127//120 131//120 124//120 
f 124//120 123//120 127//120 
f 131//74 133//74 125//74 
f 125//68 124//68 131//68 
f 133//119 128//119 122//119 
f 122//119 125//119 133//119 
# 128 faces

#
# object lowerDoor
#

v  -3.3229 1.3832 -1.6380
v  -3.5696 1.3832 -1.6380
v  -3.5693 1.9302 -1.2677
v  -3.3271 1.9328 -1.2691
v  -3.3229 1.3603 -2.2581
v  -3.5696 1.3603 -2.2581
v  -3.3229 0.0245 -1.4868
v  -3.5651 0.0219 -1.4883
v  -3.3163 0.0196 -0.0000
v  -3.5763 0.0196 -0.0000
v  -3.2960 1.9148 -1.2592
v  -3.5963 0.0396 -1.4781
v  -3.5760 1.9348 -0.0000
v  -3.3160 1.9348 -0.0000
v  -3.3229 1.3832 1.6380
v  -3.3271 1.9328 1.2691
v  -3.5649 1.9328 1.2691
v  -3.5696 1.3832 1.6380
v  -3.3229 1.3603 2.2581
v  -3.5696 1.3603 2.2581
v  -3.3274 0.0219 1.4883
v  -3.5651 0.0219 1.4883
v  -3.2963 0.0396 1.4781
v  -3.2960 1.9148 1.2592
v  -3.5960 1.9148 1.2592
v  -3.5963 0.0396 1.4781
# 26 vertices

vn -0.0000 0.5606 -0.8281
vn -0.0108 0.5572 -0.8303
vn -0.0000 0.9993 -0.0368
vn 0.0104 -0.4985 -0.8668
vn 0.0000 -0.5000 -0.8660
vn 0.0000 -1.0000 -0.0016
vn 0.0104 -0.9999 -0.0033
vn 0.5063 0.4833 -0.7142
vn -0.4933 -0.4349 -0.7533
vn -0.0106 0.9999 -0.0037
vn -0.0000 1.0000 -0.0016
vn 1.0000 -0.0026 -0.0045
vn 1.0000 0.0047 -0.0002
vn 0.9991 -0.0299 -0.0290
vn 0.9999 -0.0001 0.0159
vn -1.0000 0.0040 -0.0053
vn -0.9998 0.0198 -0.0007
vn -0.9998 0.0186 -0.0102
vn -0.9999 0.0001 0.0135
vn 0.5009 0.8655 -0.0058
vn -0.4945 -0.8692 -0.0051
vn -0.0000 0.5573 0.8303
vn -0.0000 0.9993 0.0368
vn 0.0000 -0.4986 0.8668
vn 0.0000 -1.0000 0.0016
vn 0.4944 -0.8692 0.0051
vn 0.4932 -0.4350 0.7534
vn 0.5063 0.4833 0.7142
vn -0.5009 0.8655 0.0058
vn -0.5064 0.4835 0.7139
vn -0.4933 -0.4349 0.7533
vn -0.0000 1.0000 0.0016
vn 0.9999 -0.0001 -0.0159
vn 0.9991 -0.0299 0.0290
vn 1.0000 0.0047 0.0002
vn 0.9995 0.0284 -0.0139
vn -0.9999 0.0001 -0.0135
vn -0.9998 0.0198 0.0007
vn -0.9998 0.0186 0.0102
vn -0.9980 -0.0616 -0.0168
vn 0.5009 0.8655 0.0058
vn -0.4945 -0.8692 0.0051
# 42 vertex normals

g lowerDoor
usemtl 02___Default
f 138//121 139//121 140//121 
f 140//122 141//122 138//122 
f 142//123 143//123 139//123 
f 139//123 138//123 142//123 
f 144//124 145//124 143//124 
f 143//125 142//125 144//125 
f 146//126 147//126 145//126 
f 145//127 144//127 146//127 
f 148//128 138//128 141//128 
f 149//129 143//129 145//129 
f 141//130 140//130 150//130 
f 150//131 151//131 141//131 
f 146//132 144//132 142//132 
f 146//133 142//133 138//133 
f 146//134 138//134 148//134 
f 146//135 148//135 151//135 
f 150//136 140//136 139//136 
f 139//137 143//137 149//137 
f 150//138 139//138 149//138 
f 150//139 149//139 147//139 
f 148//140 141//140 151//140 
f 147//141 149//141 145//141 
f 152//142 153//142 154//142 
f 154//142 155//142 152//142 
f 156//143 152//143 155//143 
f 155//143 157//143 156//143 
f 158//144 156//144 157//144 
f 157//144 159//144 158//144 
f 146//145 158//145 159//145 
f 159//145 147//145 146//145 
f 160//146 158//146 146//146 
f 156//147 158//147 160//147 
f 161//148 153//148 152//148 
f 162//149 154//149 150//149 
f 155//150 154//150 162//150 
f 163//151 159//151 157//151 
f 153//152 151//152 150//152 
f 150//152 154//152 153//152 
f 146//153 151//153 161//153 
f 146//154 161//154 152//154 
f 146//155 152//155 156//155 
f 146//156 156//156 160//156 
f 150//157 147//157 163//157 
f 163//158 157//158 155//158 
f 150//159 163//159 155//159 
f 150//160 155//160 162//160 
f 151//161 153//161 161//161 
f 147//162 159//162 163//162 
# 48 faces

