# 3ds Max Wavefront OBJ Exporter v0.97b - (c)2007 guruware
# File Created: 16.08.2020 00:00:20

#
# object room
#

v  -2.5000 0.0001 -0.0000
v  -2.5000 -0.0000 2.5000
v  -0.0000 -0.0001 2.5000
v  -0.0000 -0.0001 -0.0000
v  2.5000 -0.0003 2.5000
v  2.5000 -0.0003 0.0000
v  2.5000 -0.0003 -2.5000
v  -0.0000 -0.0001 -2.5000
v  -2.5000 -0.0000 -2.5000
# 9 vertices

vn 0.0000 1.0000 0.0000
vn 0.0000 1.0000 0.0000
vn 0.0000 1.0000 0.0000
vn 0.0001 1.0000 -0.0000
vn 0.0001 1.0000 -0.0000
vn 0.0001 1.0000 -0.0000
vn 0.0001 1.0000 -0.0000
vn 0.0001 1.0000 -0.0000
vn 0.0001 1.0000 -0.0000
vn 0.0001 1.0000 -0.0000
vn 0.0001 1.0000 -0.0000
vn 0.0001 1.0000 -0.0000
vn 0.0001 1.0000 0.0000
vn 0.0001 1.0000 0.0000
vn 0.0001 1.0000 0.0000
vn 0.0001 1.0000 -0.0000
vn 0.0001 1.0000 -0.0000
vn 0.0001 1.0000 -0.0000
vn 0.0000 1.0000 -0.0000
vn 0.0000 1.0000 -0.0000
vn 0.0000 1.0000 -0.0000
vn 0.0001 1.0000 -0.0000
vn 0.0001 1.0000 -0.0000
vn 0.0001 1.0000 -0.0000
# 24 vertex normals

g room
f 1//1 2//2 3//3 
f 3//4 4//5 1//6 
f 3//7 5//8 6//9 
f 6//10 4//11 3//12 
f 6//13 7//14 8//15 
f 8//16 4//17 6//18 
f 8//19 9//20 1//21 
f 1//22 4//23 8//24 
# 8 faces

