# 3ds Max Wavefront OBJ Exporter v0.97b - (c)2007 guruware
# File Created: 16.08.2020 00:00:35

#
# object room_corner
#

v  2.5000 1.3856 -3.2998
v  -2.5002 0.0000 -2.5001
v  2.5003 -0.0000 2.5005
v  2.5000 -0.0000 -2.5002
v  2.5000 3.9416 -1.8005
v  -3.2996 1.3856 2.4998
v  -2.5000 -0.0000 2.4998
v  -3.2971 1.3856 -3.3035
v  -1.7988 3.9416 -1.7989
v  -1.8003 3.9416 2.4998
v  -2.5002 0.0000 -0.0001
v  0.0002 -0.0000 2.5001
v  2.5002 -0.0000 0.0001
v  -0.0002 0.0000 -2.5001
v  -0.0000 -0.0000 -0.0000
v  -1.3989 3.9416 -1.3989
v  2.5002 3.9409 -1.4005
v  2.4999 5.0647 -1.3988
v  -1.3989 5.0650 -1.3989
v  -1.4003 3.9409 2.4999
v  -1.3984 5.0643 2.4997
v  2.5003 5.0643 2.4997
# 22 vertices

vn 0.0003 -0.5060 0.8625
vn 0.0003 -0.5060 0.8625
vn 0.0003 -0.5060 0.8625
vn -0.0005 -0.5071 0.8619
vn -0.0005 -0.5071 0.8619
vn -0.0005 -0.5071 0.8619
vn -0.0005 0.4998 0.8661
vn -0.0005 0.4998 0.8661
vn -0.0005 0.4998 0.8661
vn 0.0000 0.5016 0.8651
vn 0.0000 0.5016 0.8651
vn 0.0000 0.5016 0.8651
vn -0.0000 0.9978 -0.0667
vn -0.0000 0.9978 -0.0667
vn -0.0000 0.9978 -0.0667
vn 0.0004 -0.0016 1.0000
vn 0.0004 -0.0016 1.0000
vn 0.0004 -0.0016 1.0000
vn -0.0000 -0.0000 1.0000
vn -0.0000 -0.0000 1.0000
vn -0.0000 -0.0000 1.0000
vn 0.8625 -0.5060 0.0003
vn 0.8625 -0.5060 0.0003
vn 0.8625 -0.5060 0.0003
vn 0.8626 -0.5059 0.0004
vn 0.8626 -0.5059 0.0004
vn 0.8626 -0.5059 0.0004
vn 0.8661 0.4998 0.0004
vn 0.8661 0.4998 0.0004
vn 0.8661 0.4998 0.0004
vn 0.8669 0.4985 -0.0000
vn 0.8669 0.4985 -0.0000
vn 0.8669 0.4985 -0.0000
vn 1.0000 -0.0000 0.0004
vn 1.0000 -0.0000 0.0004
vn 1.0000 -0.0000 0.0004
vn 1.0000 -0.0017 -0.0001
vn 1.0000 -0.0017 -0.0001
vn 1.0000 -0.0017 -0.0001
vn 0.0000 1.0000 0.0000
vn 0.0000 1.0000 0.0000
vn 0.0000 1.0000 0.0000
vn 0.0000 1.0000 0.0000
vn 0.0000 1.0000 0.0000
vn 0.0000 1.0000 0.0000
vn 0.0000 1.0000 0.0000
vn 0.0000 1.0000 0.0000
vn 0.0000 1.0000 0.0000
vn 0.0000 1.0000 0.0000
vn 0.0000 1.0000 0.0000
vn 0.0000 1.0000 0.0000
vn 0.0000 1.0000 0.0000
vn 0.0000 1.0000 0.0000
vn 0.0000 1.0000 0.0000
vn 0.0000 1.0000 0.0000
vn 0.0000 1.0000 0.0000
vn 0.0000 1.0000 0.0000
vn 0.0000 1.0000 -0.0000
vn 0.0000 1.0000 -0.0000
vn 0.0000 1.0000 -0.0000
vn 0.0000 1.0000 0.0000
vn 0.0000 1.0000 0.0000
vn 0.0000 1.0000 0.0000
vn -0.0000 -1.0000 -0.0017
vn -0.0000 -1.0000 -0.0017
vn -0.0000 -1.0000 -0.0017
vn -0.0002 -1.0000 0.0002
vn -0.0002 -1.0000 0.0002
vn -0.0002 -1.0000 0.0002
vn 0.0000 -1.0000 -0.0000
vn 0.0000 -1.0000 -0.0000
vn 0.0000 -1.0000 -0.0000
vn -0.0017 -1.0000 -0.0002
vn -0.0017 -1.0000 -0.0002
vn -0.0017 -1.0000 -0.0002
vn -0.0001 -1.0000 -0.0002
vn -0.0001 -1.0000 -0.0002
vn -0.0001 -1.0000 -0.0002
vn -0.0000 -1.0000 -0.0001
vn -0.0000 -1.0000 -0.0001
vn -0.0000 -1.0000 -0.0001
# 81 vertex normals

g room_corner
f 1//1 5//2 9//3 
f 9//4 8//5 1//6 
f 4//7 1//8 8//9 
f 8//10 2//11 4//12 
f 2//13 14//14 4//15 
f 16//16 17//17 18//18 
f 18//19 19//20 16//21 
f 9//22 10//23 6//24 
f 6//25 8//26 9//27 
f 8//28 6//29 7//30 
f 7//31 2//32 8//33 
f 20//34 16//35 19//36 
f 19//37 21//38 20//39 
f 11//40 7//41 12//42 
f 12//43 15//44 11//45 
f 12//46 3//47 13//48 
f 13//49 15//50 12//51 
f 13//52 4//53 14//54 
f 14//55 15//56 13//57 
f 14//58 2//59 11//60 
f 11//61 15//62 14//63 
f 9//64 5//65 17//66 
f 17//67 16//68 9//69 
f 10//70 9//71 16//72 
f 16//73 20//74 10//75 
f 21//76 19//77 18//78 
f 18//79 22//80 21//81 
# 27 faces

