# 3ds Max Wavefront OBJ Exporter v0.97b - (c)2007 guruware
# File Created: 19.08.2020 22:38:23

mtllib room-entry.mtl

#
# object room_entry
#

v  -1.8003 3.9416 2.5000
v  -3.2996 1.3856 2.5000
v  -3.3000 1.3852 2.3012
v  -1.7999 3.9416 0.8002
v  -2.5000 0.0000 2.5000
v  -5.2945 -0.0004 1.5012
v  -1.3992 3.9412 -0.7997
v  -1.3987 5.0647 -0.7997
v  -1.3985 5.0647 0.8003
v  -1.3999 3.9412 0.8003
v  -1.4003 3.9412 2.5000
v  -1.3984 5.0647 2.5000
v  -1.2500 -0.0001 2.5000
v  -1.2500 -0.0001 1.2500
v  0.0000 -0.0002 2.5000
v  0.0000 -0.0002 1.2500
v  0.0000 -0.0002 0.0000
v  -1.2500 -0.0001 0.0000
v  -5.2945 0.0000 0.0000
v  1.2500 -0.0003 2.5000
v  2.5000 -0.0004 2.5000
v  2.5000 -0.0004 1.2500
v  1.2500 -0.0003 1.2500
v  2.5000 -0.0004 0.0000
v  1.2500 -0.0003 0.0000
v  2.5000 -0.0004 -1.2500
v  2.5000 -0.0004 -2.5000
v  1.2500 -0.0003 -2.5000
v  1.2500 -0.0003 -1.2500
v  0.0000 -0.0002 -2.5000
v  0.0000 -0.0002 -1.2500
v  -1.2500 -0.0001 -2.5000
v  -2.5000 -0.0000 -2.5000
v  -5.2945 -0.0004 -1.5012
v  -1.2500 -0.0001 -1.2500
v  -3.3000 1.3856 -2.5000
v  -3.3000 1.3852 -2.3012
v  -1.7988 3.9416 -2.5000
v  -1.7992 3.9416 -0.7998
v  -1.3988 3.9412 -2.5000
v  -1.3988 5.0647 -2.5000
v  -5.2945 -0.8928 -1.5012
v  -5.2945 -0.8926 0.0000
v  -5.2945 -0.8928 1.5012
v  2.4998 5.0650 -2.5000
v  2.4999 5.0650 -0.7998
v  2.5001 5.0650 0.8002
v  2.5002 5.0650 2.5000
# 48 vertices

vn 0.8625 -0.5060 -0.0006
vn 0.8625 -0.5060 0.0002
vn 0.3360 0.0591 -0.9400
vn 0.8661 0.4998 -0.0027
vn 1.0000 -0.0005 -0.0001
vn 1.0000 -0.0013 0.0004
vn 1.0000 -0.0013 0.0002
vn 1.0000 -0.0017 -0.0001
vn 0.0001 1.0000 -0.0007
vn -0.0001 1.0000 -0.0000
vn 0.0001 1.0000 -0.0000
vn 0.0000 1.0000 0.0003
vn 0.0001 1.0000 0.0000
vn 0.0001 1.0000 0.0007
vn 0.0000 1.0000 -0.0003
vn 0.8660 0.5000 0.0011
vn 0.3360 0.0591 0.9400
vn 0.8623 -0.5064 -0.0011
vn 0.8623 -0.5064 0.0002
vn 1.0000 0.0000 -0.0001
vn 1.0000 -0.0005 0.0002
vn -1.0000 0.0000 -0.0000
vn -1.0000 0.0000 0.0000
vn 0.0001 -1.0000 0.0000
vn -0.0009 -1.0000 0.0000
# 25 vertex normals

g room_entry
usemtl wall
f 1//1 2//1 3//1 
f 3//2 4//2 1//2 
f 5//3 6//3 3//3 
f 3//4 2//4 5//4 
f 7//5 8//5 9//5 
f 9//6 10//6 7//6 
f 11//7 10//7 9//7 
f 9//8 12//8 11//8 
f 6//9 5//9 13//9 
f 13//10 14//10 6//10 
f 13//11 15//11 16//11 
f 16//11 14//11 13//11 
f 16//11 17//11 18//11 
f 18//11 14//11 16//11 
f 18//12 19//12 6//12 
f 6//10 14//10 18//10 
f 20//13 21//13 22//13 
f 22//11 23//11 20//11 
f 22//11 24//11 25//11 
f 25//11 23//11 22//11 
f 25//11 17//11 16//11 
f 16//11 23//11 25//11 
f 16//11 15//11 20//11 
f 20//11 23//11 16//11 
f 26//11 27//11 28//11 
f 28//11 29//11 26//11 
f 28//11 30//11 31//11 
f 31//11 29//11 28//11 
f 31//11 17//11 25//11 
f 25//11 29//11 31//11 
f 25//11 24//11 26//11 
f 26//11 29//11 25//11 
f 32//14 33//14 34//14 
f 34//10 35//10 32//10 
f 34//15 19//15 18//15 
f 18//10 35//10 34//10 
f 18//11 17//11 31//11 
f 31//11 35//11 18//11 
f 31//11 30//11 32//11 
f 32//11 35//11 31//11 
f 33//16 36//16 37//16 
f 37//17 34//17 33//17 
f 37//18 36//18 38//18 
f 38//19 39//19 37//19 
f 40//20 41//20 8//20 
f 8//21 7//21 40//21 
f 42//22 43//22 19//22 
f 19//23 34//23 42//23 
f 43//22 44//22 6//22 
f 6//22 19//22 43//22 
f 45//24 46//24 8//24 
f 8//24 41//24 45//24 
f 46//24 47//24 9//24 
f 9//24 8//24 46//24 
f 47//24 48//24 12//24 
f 12//24 9//24 47//24 
f 1//25 4//25 10//25 
f 10//25 11//25 1//25 
f 4//25 39//25 7//25 
f 7//25 10//25 4//25 
f 39//25 38//25 40//25 
f 40//25 7//25 39//25 
# 62 faces

