<?xml version="1.0" encoding="utf-8"?>
<!-- Generator: Adobe Illustrator 14.0.0, SVG Export Plug-In . SVG Version: 6.00 Build 43363)  -->
<!DOCTYPE svg PUBLIC "-//W3C//DTD SVG 1.1//EN" "http://www.w3.org/Graphics/SVG/1.1/DTD/svg11.dtd">
<svg version="1.1" id="Ebene_1" xmlns="http://www.w3.org/2000/svg" xmlns:xlink="http://www.w3.org/1999/xlink" x="0px" y="0px"
	 width="16px" height="16px" viewBox="412.945 289.64 16 16" enable-background="new 412.945 289.64 16 16" xml:space="preserve">
<g>
	<g transform="translate(0.000000,511.000000) scale(0.100000,-0.100000)">
		<path fill="#FFAA00" d="M4206.572,2203.335c-5.732-1.855-9.146-6.553-9.146-12.5c0-5.234,2.563-9.365,7.188-11.641
			c2.139-1.069,2.676-1.177,5.591-1.177c2.744,0,3.491,0.142,5.229,0.967c2.715,1.24,5.283,3.701,6.563,6.226
			c0.918,1.89,1.025,2.383,1.025,5.625c0,3.203-0.107,3.77-0.986,5.518c-2.285,4.492-6.426,7.158-11.294,7.373
			C4209.135,2203.789,4207.46,2203.618,4206.572,2203.335z"/>
		<path fill="#FFAA00" d="M4238.872,2178.725v-22.964h-7.334h-7.344l-7.041,5.874l-7.056,5.874l-8.33,4.238l-8.296,4.272
			l-12.251,2.314c-6.768,1.279-13.066,2.349-13.994,2.349c-1.035,0-2.314-0.288-3.174-0.708
			c-1.567-0.82-18.403-17.129-19.971-19.336c-2.529-3.633-1.104-8.862,3.022-11.006c2.852-1.421,6.948-0.747,8.975,1.504
			c0.396,0.42,3.701,3.662,7.373,7.188l6.66,6.377l5.586-1.069c3.066-0.605,5.664-1.143,5.732-1.245
			c0.068-0.073-2.988-6.128-6.87-13.428c-3.843-7.266-7.295-14.102-7.656-15.093c-2.065-5.874-1.387-10.854,1.89-13.97
			c1.357-1.279,4.092-2.871,19.512-11.377c6.167-3.438,11.25-6.25,11.289-6.328c0.039-0.02-1.855-6.67-4.165-14.795
			c-2.354-8.125-4.277-15.313-4.277-15.986c-0.034-5.596,5.879-9.502,10.859-7.207c1.714,0.801,3.179,2.295,3.882,3.955
			c0.288,0.693,3.101,10.293,6.27,21.338c4.766,16.631,5.693,20.117,5.264,20.518c-0.234,0.205-6.226,3.594-13.271,7.441
			c-7.051,3.877-12.964,7.148-13.105,7.334c-0.249,0.215,12.817,25.557,13.672,26.484c0.142,0.181,2.988-1.953,6.299-4.697
			c3.32-2.739,6.592-5.303,7.227-5.659c1.143-0.61,2.393-0.64,18.662-0.64h17.451l0.176,6.226l0.186,6.23l0.889,0.107
			c0.742,0.073,2.52-1.567,10.859-9.897l9.98-9.971l-10.02-10c-8.262-8.232-10.176-9.98-10.859-9.883l-0.85,0.117l-0.186,6.23
			l-0.176,6.23l-7.725,0.098l-7.764,0.078v-30.439v-30.439h24.033h24.033l-0.068,68.296l-0.107,68.257l-23.936,0.112l-23.955,0.068
			V2178.725L4238.872,2178.725z"/>
		<path fill="#FFAA00" d="M4159.111,2110.893c-2.246-4.883-2.744-5.693-3.525-5.84c-0.503-0.107-4.702-0.605-9.297-1.104
			c-9.468-1.025-11.25-1.602-12.925-4.033c-3.208-4.58-0.679-10.996,4.697-12.07c0.996-0.176,28.564,2.568,28.735,2.852
			c0.576,1.006,7.695,16.67,7.588,16.768c-0.073,0.078-2.065,1.25-4.414,2.568c-2.964,1.68-4.883,3.018-6.27,4.453l-1.992,2.061
			L4159.111,2110.893z"/>
	</g>
</g>
</svg>
