<?xml version="1.0" encoding="utf-8"?>
<!-- Generator: Adobe Illustrator 14.0.0, SVG Export Plug-In . SVG Version: 6.00 Build 43363)  -->
<!DOCTYPE svg PUBLIC "-//W3C//DTD SVG 1.1//EN" "http://www.w3.org/Graphics/SVG/1.1/DTD/svg11.dtd">
<svg version="1.1" xmlns="http://www.w3.org/2000/svg" xmlns:xlink="http://www.w3.org/1999/xlink" x="0px" y="0px" width="16px"
	 height="16px" viewBox="0 0 16 16" enable-background="new 0 0 16 16" xml:space="preserve">
<g id="Ebene_1" display="none">
	<g display="inline">
		<g>
			<path fill="#FFAA00" d="M2.666,1.086v13.811h1.003V2.089h6.823L6.53,2.788v10.779l5.458,1.347v-1.973h0.342v1.973h1.004V1.086
				H2.666z M12.33,2.089v1.255h-0.342V2.089H12.33z M7.493,8.694c-0.199,0-0.36-0.211-0.36-0.469s0.161-0.469,0.36-0.469
				c0.198,0,0.359,0.211,0.359,0.469S7.691,8.694,7.493,8.694z M11.988,11.381V4.904h0.342v6.477H11.988z"/>
		</g>
	</g>
</g>
<g id="Ebene_3" display="none">
	<g display="inline">
		<g transform="translate(0.000000,512.000000) scale(0.100000,-0.100000)">
			<path fill="#FFAA00" d="M51.65,5111.967c-0.864-0.474-43.047-42.656-43.501-43.501c-0.347-0.649-0.4-7.734-0.4-49.756v-49.004
				l0.82-0.908l0.82-0.928l49.092-0.078c33.765-0.039,49.282,0.029,49.771,0.215c1.094,0.449,43.701,43.193,43.906,44.053
				c0.078,0.381,0.107,22.725,0.078,49.6l-0.078,48.931l-0.791,0.752l-0.762,0.801l-49.219,0.054
				C66.328,5112.255,52.051,5112.167,51.65,5111.967z M123.926,5088.276l-18.076-18.066H80.957H56.025v1.982
				c0,1.104-0.166,2.432-0.391,2.959c-0.874,2.031-3.76,2.407-5.078,0.625c-0.488-0.625-0.625-1.328-0.713-3.193l-0.088-2.373
				h-15.83H18.052l16.66,16.665l16.626,16.66l1.05-0.176c1.47-0.254,2.734,0.513,3.301,1.89l0.425,1.104h42.93h42.949
				L123.926,5088.276z M146.367,5058.979v-42.886l-1.104-0.43c-1.377-0.557-2.148-1.826-1.895-3.291l0.176-1.055l-16.66-16.621
				l-16.66-16.66v15.889v15.879h1.982c1.104,0,2.432,0.156,2.959,0.381c2.041,0.879,2.402,3.76,0.625,5.098
				c-0.625,0.469-1.328,0.615-3.184,0.693l-2.383,0.088v24.878v24.893l17.988,17.993c9.902,9.902,18.037,18.013,18.066,18.013
				C146.338,5101.84,146.367,5082.548,146.367,5058.979z M104.023,5018.828v-45.166H59.897h-44.15l-0.313,0.703
				c-0.2,0.4-0.654,0.85-1.055,1.035l-0.703,0.332v44.15v44.121h45.171h45.176V5018.828z"/>
			<path fill="#FFAA00" d="M51.601,5096.025c-1.533-0.767-1.846-1.87-1.733-6.333l0.088-3.95l0.903-0.874
				c0.713-0.742,1.104-0.903,2.07-0.903c0.952,0,1.353,0.161,2.056,0.903l0.903,0.874l0.088,3.95c0.112,4.512-0.2,5.591-1.782,6.333
				C53.042,5096.586,52.729,5096.586,51.601,5096.025z"/>
			<path fill="#FFAA00" d="M125.596,5015.556c-1.846-0.908-2.188-3.252-0.713-4.736l0.879-0.879h4.375h4.375l0.869,0.879
				c1.494,1.484,1.133,3.857-0.732,4.756C133.35,5016.181,126.826,5016.181,125.596,5015.556z"/>
			<path fill="#FFAA00" d="M50.884,5056.684l-0.928-0.815l-0.088-3.608c-0.112-4.302,0.039-5.19,0.967-6.128
				c0.991-0.991,2.119-1.182,3.335-0.63c1.631,0.801,1.919,1.816,1.807,6.392l-0.088,3.975l-0.928,0.815
				C53.682,5057.827,52.163,5057.827,50.884,5056.684z"/>
			<path fill="#FFAA00" d="M51.338,5037.768c-1.24-0.752-1.519-1.855-1.519-5.728c0-4.678,0.737-6.152,3.11-6.152
				c2.368,0,3.096,1.475,3.096,6.211c0,3.901-0.337,5.078-1.67,5.757C53.227,5038.457,52.412,5038.417,51.338,5037.768z"/>
			<path fill="#FFAA00" d="M50.923,5018.037c-0.737-0.635-0.903-1.045-1.016-2.344c-0.112-1.045-0.337-1.748-0.791-2.236
				c-0.874-0.947-1.279-1.797-1.279-2.637c0-3.027,3.589-4.014,5.767-1.621c0.342,0.371,0.869,0.605,1.494,0.605
				c0.513,0,1.377,0.156,1.895,0.381c2.617,1.104,2.456,4.521-0.293,5.684c-0.522,0.225-0.952,0.586-0.952,0.85
				c0,0.254-0.361,0.84-0.815,1.289C53.769,5019.14,52.163,5019.179,50.923,5018.037z"/>
			<path fill="#FFAA00" d="M67.407,5015.439c-1.104-0.654-1.504-1.348-1.504-2.588c0-1.221,0.688-2.148,1.87-2.666
				c1.299-0.537,7.393-0.537,8.721,0c0.991,0.43,1.846,1.67,1.846,2.715c0,1.035-0.854,2.295-1.846,2.705
				c-0.674,0.293-2.09,0.4-4.575,0.4C68.848,5016.005,68.174,5015.917,67.407,5015.439z"/>
			<path fill="#FFAA00" d="M86.797,5015.527c-1.396-0.742-1.978-2.363-1.289-3.809c0.82-1.689,1.768-1.982,6.406-1.865l3.965,0.088
				l0.83,0.928c1.133,1.26,1.133,2.793,0,4.072l-0.83,0.928l-4.053,0.078C88.408,5016.005,87.646,5015.957,86.797,5015.527z"/>
			<path fill="#FFAA00" d="M40.532,5004.238c-0.679-0.137-5.254-4.355-6.294-5.82c-1.216-1.689-0.601-3.789,1.328-4.57
				c1.465-0.615,2.334-0.234,5.015,2.363c3.198,3.086,3.672,3.76,3.672,5.166C44.253,5003.222,42.476,5004.57,40.532,5004.238z"/>
			<path fill="#FFAA00" d="M25.4,4989.492c-1.216-0.752-5.679-5.41-5.928-6.182c-0.679-2.197,1.465-4.453,3.696-3.887
				c0.84,0.215,5.903,4.99,6.494,6.162C31.128,4988.427,28.135,4991.201,25.4,4989.492z"/>
		</g>
	</g>
</g>
<g id="Ebene_4" display="none">
	<g display="inline">
		<g>
			<g transform="translate(0.000000,512.000000) scale(0.100000,-0.100000)">
				<path fill="#FFAA00" d="M75.44,5109.238c-13.843-1.348-26.646-9.346-34.082-21.343c-5.532-8.901-7.944-20.547-6.104-29.399
					c2.749-13.208,14.536-33.086,33.872-57.168c5.347-6.641,10.552-12.773,10.864-12.773c0.283,0,6.895,7.764,11.357,13.379
					c19.082,23.818,31.084,44.253,33.477,56.914c1.104,5.83,0.469,12.759-1.787,19.531
					C116.348,5098.544,96.68,5111.274,75.44,5109.238z M85.664,5089.858c3.867-0.996,6.934-2.749,10-5.64
					c2.549-2.437,4.482-5.342,5.605-8.369c1.133-3.057,1.299-4.194,1.299-8.125c-0.029-3.433-0.068-3.994-0.664-5.918
					c-1.24-4.209-3.145-7.358-6.123-10.22c-2.959-2.842-5.684-4.429-9.756-5.659c-1.943-0.586-2.461-0.664-6.035-0.664
					s-4.097,0.078-6.035,0.664c-4.287,1.279-7.437,3.193-10.342,6.245c-2.886,3.032-4.619,6.084-5.659,9.99
					c-0.781,2.915-0.781,8.452,0,11.362c2.393,8.853,9.731,15.43,18.843,16.875C78.589,5090.708,83.682,5090.375,85.664,5089.858z"
					/>
			</g>
		</g>
		<path fill="#FFAA00" d="M9.994,11.445l-0.74,0.848c2.201,0.134,3.506,0.592,3.642,0.819c-0.159,0.331-1.932,0.925-4.896,0.925
			c-2.965,0-4.736-0.594-4.896-0.86c0.134-0.28,1.433-0.744,3.621-0.882l-0.75-0.848c-1.868,0.189-3.771,0.67-3.771,1.697
			c0,1.421,3.644,1.801,5.797,1.801c2.153,0,5.797-0.38,5.797-1.801C13.797,12.111,11.872,11.631,9.994,11.445z"/>
	</g>
</g>
<g id="Ebene_1_Kopie">
	<g>
		<g transform="translate(0.000000,511.000000) scale(0.100000,-0.100000)">
			<path fill="#FFAA00" d="M77.124,5099.702c-5.723-1.855-9.141-6.563-9.141-12.5c0-5.234,2.559-9.375,7.188-11.641
				c2.148-1.074,2.676-1.182,5.586-1.182c2.754,0,3.496,0.146,5.229,0.967c2.715,1.24,5.293,3.701,6.563,6.23
				c0.918,1.885,1.035,2.383,1.035,5.625c0,3.203-0.117,3.77-0.996,5.508c-2.285,4.492-6.426,7.168-11.284,7.383
				C79.703,5100.151,78.023,5099.975,77.124,5099.702z"/>
			<path fill="#FFAA00" d="M109.424,5075.092v-22.969H102.1h-7.344l-7.051,5.879l-7.046,5.869l-8.34,4.238l-8.281,4.268
				l-12.266,2.324c-6.758,1.27-13.066,2.344-13.984,2.344c-1.035,0-2.324-0.293-3.184-0.703
				c-1.563-0.82-18.398-17.129-19.961-19.336c-2.539-3.633-1.113-8.867,3.027-11.016c2.852-1.416,6.934-0.742,8.965,1.504
				c0.391,0.43,3.711,3.672,7.383,7.188l6.66,6.387l5.586-1.074c3.066-0.605,5.664-1.143,5.723-1.25
				c0.078-0.068-2.988-6.123-6.875-13.418c-3.828-7.266-7.285-14.102-7.656-15.098c-2.051-5.884-1.387-10.864,1.895-13.97
				c1.367-1.289,4.102-2.871,19.512-11.387c6.172-3.438,11.25-6.25,11.289-6.328c0.039-0.02-1.855-6.66-4.16-14.785
				c-2.363-8.125-4.277-15.313-4.277-15.996c-0.039-5.586,5.879-9.492,10.859-7.207c1.719,0.801,3.184,2.305,3.887,3.965
				c0.273,0.684,3.086,10.293,6.27,21.328c4.761,16.641,5.679,20.117,5.249,20.527c-0.234,0.195-6.226,3.594-13.257,7.441
				c-7.051,3.867-12.969,7.148-13.105,7.324c-0.254,0.215,12.813,25.571,13.672,26.489c0.137,0.186,2.988-1.953,6.289-4.688
				c3.32-2.744,6.597-5.313,7.222-5.664c1.152-0.605,2.402-0.645,18.672-0.645h17.441l0.176,6.23l0.195,6.23l0.879,0.107
				c0.742,0.068,2.52-1.572,10.859-9.893l9.98-9.98l-10.02-10.005c-8.262-8.223-10.176-9.98-10.859-9.883l-0.84,0.117l-0.195,6.23
				l-0.176,6.23l-7.715,0.098l-7.773,0.078v-30.439v-30.439h24.043h24.023l-0.059,68.306l-0.117,68.262l-23.926,0.107l-23.965,0.068
				V5075.092L109.424,5075.092z"/>
			<path fill="#FFAA00" d="M29.663,5007.255c-2.246-4.883-2.734-5.703-3.516-5.84c-0.508-0.117-4.707-0.605-9.297-1.113
				c-9.473-1.016-11.25-1.602-12.93-4.023c-3.203-4.59-0.684-10.996,4.707-12.07c0.996-0.176,28.555,2.559,28.73,2.852
				c0.566,0.996,7.695,16.66,7.578,16.758c-0.059,0.078-2.051,1.25-4.414,2.578c-2.949,1.68-4.883,3.008-6.27,4.453l-1.992,2.051
				L29.663,5007.255z"/>
		</g>
	</g>
</g>
</svg>
